<?xml version="1.0" encoding="iso-8859-1"?>
<!-- Generator: Adobe Illustrator 19.0.0, SVG Export Plug-In . SVG Version: 6.00 Build 0)  -->
<svg xmlns="http://www.w3.org/2000/svg" xmlns:xlink="http://www.w3.org/1999/xlink" version="1.1" id="Layer_1" x="0px" y="0px" viewBox="0 0 512 512" style="enable-background:new 0 0 512 512;" xml:space="preserve">
<polygon style="fill:#B757D1;" points="389.565,33.391 389.565,0 122.435,0 122.435,33.391 89.043,33.391 89.043,478.609   122.435,478.609 122.435,512 389.565,512 389.565,478.609 422.957,478.609 422.957,33.391 "/>
<rect x="89.043" y="66.783" style="fill:#83C9FF;" width="333.913" height="378.435"/>
<g>
	<rect x="155.826" y="300.522" style="fill:#FFFFFF;" width="33.391" height="33.391"/>
	<rect x="189.217" y="267.13" style="fill:#FFFFFF;" width="33.391" height="33.391"/>
	<rect x="222.609" y="233.739" style="fill:#FFFFFF;" width="33.391" height="33.391"/>
	<rect x="256" y="200.348" style="fill:#FFFFFF;" width="33.391" height="33.391"/>
	<rect x="289.391" y="166.957" style="fill:#FFFFFF;" width="33.391" height="33.391"/>
	<rect x="322.783" y="133.565" style="fill:#FFFFFF;" width="33.391" height="33.391"/>
	<polygon style="fill:#FFFFFF;" points="155.826,267.13 155.826,233.739 189.217,233.739 189.217,200.348 222.609,200.348    222.609,166.957 256,166.957 256,133.565 289.391,133.565 289.391,100.174 289.391,66.783 222.609,66.783 222.609,100.174    222.609,133.565 189.217,133.565 189.217,166.957 155.826,166.957 155.826,200.348 122.435,200.348 89.043,200.348 89.043,267.13    122.435,267.13  "/>
	<polygon style="fill:#FFFFFF;" points="144.696,100.174 144.696,66.783 144.696,33.391 144.696,0 122.435,0 122.435,33.391    89.043,33.391 89.043,100.174 122.435,100.174  "/>
	<polygon style="fill:#FFFFFF;" points="356.174,66.783 356.174,100.174 356.174,133.565 389.565,133.565 422.957,133.565    422.957,66.783  "/>
	<polygon style="fill:#FFFFFF;" points="89.043,333.913 89.043,367.304 122.435,367.304 155.826,367.304 155.826,333.913    122.435,333.913  "/>
	<polygon style="fill:#FFFFFF;" points="89.043,478.609 122.435,478.609 122.435,512 144.696,512 144.696,478.609 144.696,445.217    144.696,434.087 144.696,411.826 89.043,411.826  "/>
</g>
<rect x="122.435" width="267.13" height="33.391"/>
<rect x="122.435" y="478.609" width="267.13" height="33.391"/>
<path d="M389.565,33.391v33.391h-267.13V33.391H89.043v445.217h33.391v-33.391h267.13v33.391h33.391V33.391H389.565z   M122.435,411.826V100.174h267.13v311.652H122.435z"/>
<g>
</g>
<g>
</g>
<g>
</g>
<g>
</g>
<g>
</g>
<g>
</g>
<g>
</g>
<g>
</g>
<g>
</g>
<g>
</g>
<g>
</g>
<g>
</g>
<g>
</g>
<g>
</g>
<g>
</g>
</svg>
