<?xml version="1.0" encoding="iso-8859-1"?>
<!-- Generator: Adobe Illustrator 19.0.0, SVG Export Plug-In . SVG Version: 6.00 Build 0)  -->
<svg xmlns="http://www.w3.org/2000/svg" xmlns:xlink="http://www.w3.org/1999/xlink" version="1.1" id="Layer_1" x="0px" y="0px" viewBox="0 0 512 512" style="enable-background:new 0 0 512 512;" xml:space="preserve">
<polygon style="fill:#00CCB2;" points="478.609,33.391 478.609,0 33.391,0 33.391,33.391 0,33.391 0,389.565 33.391,389.565   33.391,422.957 178.087,422.957 178.087,456.348 211.478,456.348 300.522,456.348 333.913,456.348 333.913,422.957 478.609,422.957   478.609,389.565 512,389.565 512,33.391 "/>
<polygon style="fill:#83C9FF;" points="478.609,33.391 478.609,0 33.391,0 33.391,33.391 0,33.391 0,356.174 33.391,356.174   478.609,356.174 512,356.174 512,33.391 "/>
<g>
	<rect x="66.783" y="233.739" style="fill:#FFFFFF;" width="33.391" height="33.391"/>
	<rect x="100.174" y="200.348" style="fill:#FFFFFF;" width="33.391" height="33.391"/>
	<rect x="133.565" y="166.957" style="fill:#FFFFFF;" width="33.391" height="33.391"/>
	<rect x="166.957" y="133.565" style="fill:#FFFFFF;" width="33.391" height="33.391"/>
	<rect x="200.348" y="100.174" style="fill:#FFFFFF;" width="33.391" height="33.391"/>
	<rect x="233.739" y="66.783" style="fill:#FFFFFF;" width="33.391" height="33.391"/>
	<polygon style="fill:#FFFFFF;" points="66.783,200.348 66.783,166.957 100.174,166.957 100.174,133.565 133.565,133.565    133.565,100.174 166.957,100.174 166.957,66.783 200.348,66.783 200.348,33.391 200.348,0 133.565,0 133.565,33.391    133.565,66.783 100.174,66.783 100.174,100.174 66.783,100.174 66.783,133.565 33.391,133.565 0,133.565 0,200.348 33.391,200.348     "/>
	<polygon style="fill:#FFFFFF;" points="267.13,0 267.13,33.391 267.13,66.783 300.522,66.783 300.522,33.391 300.522,0  "/>
	<polygon style="fill:#FFFFFF;" points="0,267.13 0,300.522 33.391,300.522 66.783,300.522 66.783,267.13 33.391,267.13  "/>
</g>
<polygon points="478.609,33.391 478.609,322.783 33.391,322.783 33.391,33.391 0,33.391 0,389.565 33.391,389.565 33.391,356.174   478.609,356.174 478.609,389.565 512,389.565 512,33.391 "/>
<rect x="122.435" y="478.609" width="267.13" height="33.391"/>
<rect x="33.391" width="445.217" height="33.391"/>
<polygon points="33.391,422.957 178.087,422.957 178.087,456.348 211.478,456.348 211.478,422.957 300.522,422.957 300.522,456.348   333.913,456.348 333.913,422.957 478.609,422.957 478.609,389.565 33.391,389.565 "/>
<g>
</g>
<g>
</g>
<g>
</g>
<g>
</g>
<g>
</g>
<g>
</g>
<g>
</g>
<g>
</g>
<g>
</g>
<g>
</g>
<g>
</g>
<g>
</g>
<g>
</g>
<g>
</g>
<g>
</g>
</svg>
