<?xml version="1.0" encoding="iso-8859-1"?>
<!-- Generator: Adobe Illustrator 19.0.0, SVG Export Plug-In . SVG Version: 6.00 Build 0)  -->
<svg xmlns="http://www.w3.org/2000/svg" xmlns:xlink="http://www.w3.org/1999/xlink" version="1.1" id="Layer_1" x="0px" y="0px" viewBox="0 0 512 512" style="enable-background:new 0 0 512 512;" xml:space="preserve">
<polygon style="fill:#006DF3;" points="478.609,139.13 478.609,105.739 367.304,105.739 367.304,72.348 333.913,72.348   333.913,38.957 178.087,38.957 178.087,72.348 144.696,72.348 144.696,105.739 33.391,105.739 33.391,139.13 0,139.13 0,473.043   512,473.043 512,139.13 "/>
<polygon style="fill:#83C9FF;" points="356.174,217.043 356.174,183.652 322.783,183.652 322.783,150.261 189.217,150.261   189.217,183.652 155.826,183.652 155.826,217.043 122.435,217.043 122.435,350.609 155.826,350.609 155.826,384 189.217,384   189.217,417.391 322.783,417.391 322.783,384 356.174,384 356.174,350.609 389.565,350.609 389.565,217.043 "/>
<g>
	<rect x="205.913" y="233.739" style="fill:#FFFFFF;" width="44.522" height="44.522"/>
	<polygon style="fill:#FFFFFF;" points="322.783,183.652 322.783,150.261 189.217,150.261 189.217,183.652 178.087,183.652    155.826,183.652 155.826,205.913 155.826,217.043 122.435,217.043 122.435,350.609 155.826,350.609 155.826,384 178.087,384    178.087,350.609 178.087,217.043 189.217,217.043 189.217,205.913 322.783,205.913 356.174,205.913 356.174,183.652  "/>
	<polygon style="fill:#FFFFFF;" points="122.435,139.13 144.696,139.13 144.696,128 166.957,128 166.957,105.739 178.087,105.739    178.087,94.609 200.348,94.609 200.348,72.348 200.348,38.957 178.087,38.957 178.087,72.348 166.957,72.348 144.696,72.348    144.696,94.609 144.696,105.739 122.435,105.739 111.304,105.739 100.174,105.739 33.391,105.739 33.391,139.13 0,139.13    0,473.043 55.652,473.043 55.652,439.652 55.652,161.391 122.435,161.391  "/>
</g>
<polygon points="478.609,139.13 478.609,439.652 33.391,439.652 33.391,139.13 0,139.13 0,473.043 512,473.043 512,139.13 "/>
<rect x="189.217" y="150.261" width="133.565" height="33.391"/>
<rect x="189.217" y="384" width="133.565" height="33.391"/>
<rect x="356.174" y="217.043" width="33.391" height="133.565"/>
<rect x="122.435" y="217.043" width="33.391" height="133.565"/>
<rect x="155.826" y="183.652" width="33.391" height="33.391"/>
<rect x="322.783" y="183.652" width="33.391" height="33.391"/>
<rect x="155.826" y="350.609" width="33.391" height="33.391"/>
<rect x="322.783" y="350.609" width="33.391" height="33.391"/>
<rect x="144.696" y="72.348" width="33.391" height="33.391"/>
<rect x="333.913" y="72.348" width="33.391" height="33.391"/>
<rect x="33.391" y="105.739" width="111.304" height="33.391"/>
<rect x="367.304" y="105.739" width="111.304" height="33.391"/>
<rect x="178.087" y="38.957" width="155.826" height="33.391"/>
<g>
</g>
<g>
</g>
<g>
</g>
<g>
</g>
<g>
</g>
<g>
</g>
<g>
</g>
<g>
</g>
<g>
</g>
<g>
</g>
<g>
</g>
<g>
</g>
<g>
</g>
<g>
</g>
<g>
</g>
</svg>
