<?xml version="1.0" encoding="iso-8859-1"?>
<!-- Generator: Adobe Illustrator 19.0.0, SVG Export Plug-In . SVG Version: 6.00 Build 0)  -->
<svg xmlns="http://www.w3.org/2000/svg" xmlns:xlink="http://www.w3.org/1999/xlink" version="1.1" id="Layer_1" x="0px" y="0px" viewBox="0 0 512 512" style="enable-background:new 0 0 512 512;" xml:space="preserve">
<polygon style="fill:#83C9FF;" points="478.609,239.304 389.565,239.304 389.565,72.348 356.174,72.348 155.826,72.348   122.435,72.348 122.435,239.304 33.391,239.304 0,239.304 0,406.261 0,417.391 0,439.652 33.391,439.652 478.609,439.652   512,439.652 512,428.522 512,406.261 512,239.304 "/>
<g>
	<polygon style="fill:#FFFFFF;" points="389.565,139.13 389.565,72.348 189.217,72.348 122.435,72.348 122.435,105.739    122.435,239.304 0,239.304 0,306.087 189.217,306.087 189.217,272.696 189.217,139.13  "/>
	<rect x="356.174" y="239.304" style="fill:#FFFFFF;" width="155.826" height="66.783"/>
</g>
<polygon points="244.87,194.783 211.478,194.783 211.478,228.174 244.87,228.174 244.87,306.087 278.261,306.087 278.261,172.522   244.87,172.522 "/>
<path d="M478.609,239.304h-89.043V105.739V72.348h-33.391H155.826h-33.391v33.391v133.565H33.391H0v33.391v133.565v33.391h33.391  h445.217H512v-33.391V272.696v-33.391H478.609z M478.609,406.261H33.391V272.696h89.043h33.391v-33.391V105.739h200.348v133.565  v33.391h33.391h89.043V406.261z"/>
<g>
</g>
<g>
</g>
<g>
</g>
<g>
</g>
<g>
</g>
<g>
</g>
<g>
</g>
<g>
</g>
<g>
</g>
<g>
</g>
<g>
</g>
<g>
</g>
<g>
</g>
<g>
</g>
<g>
</g>
</svg>
