<?xml version="1.0" encoding="iso-8859-1"?>
<!-- Generator: Adobe Illustrator 19.0.0, SVG Export Plug-In . SVG Version: 6.00 Build 0)  -->
<svg xmlns="http://www.w3.org/2000/svg" xmlns:xlink="http://www.w3.org/1999/xlink" version="1.1" id="Layer_1" x="0px" y="0px" viewBox="0 0 512 512" style="enable-background:new 0 0 512 512;" xml:space="preserve">
<polygon style="fill:#E0E3FA;" points="478.609,211.478 478.609,178.087 378.435,178.087 378.435,144.696 378.435,33.391   345.043,33.391 345.043,0 278.261,0 244.87,0 244.87,144.696 211.478,144.696 211.478,211.478 178.087,211.478 178.087,244.87   144.696,244.87 0,244.87 0,478.609 144.696,478.609 178.087,478.609 178.087,512 445.217,512 445.217,478.609 478.609,478.609   478.609,467.478 478.609,445.217 478.609,411.826 512,411.826 512,211.478 "/>
<polygon style="fill:#006DF3;" points="0.016,244.87 0,244.87 0,278.261 0.016,278.261 0.016,445.217 0,445.217 0,478.609   144.696,478.609 144.696,244.87 "/>
<polygon style="fill:#FFFFFF;" points="345.043,33.391 345.043,0 244.87,0 244.87,33.391 244.87,44.522 244.87,66.783   244.87,144.696 211.478,144.696 211.478,211.478 178.087,211.478 178.087,244.87 0,244.87 0,311.652 33.391,311.652   111.304,311.652 178.087,311.652 178.087,278.261 211.478,278.261 211.478,244.87 244.87,244.87 244.87,178.087 278.261,178.087   278.261,66.783 345.043,66.783 378.435,66.783 378.435,33.391 "/>
<polygon points="411.826,445.217 445.217,445.217 445.217,478.609 478.609,478.609 478.609,445.217 478.609,411.826   411.826,411.826 "/>
<rect x="211.478" y="144.696" width="33.391" height="66.783"/>
<rect x="178.087" y="211.478" width="33.391" height="33.391"/>
<rect x="178.087" y="478.609" width="267.13" height="33.391"/>
<path d="M144.696,445.217V278.261h33.391V244.87h-33.391h-33.391H33.391l0,0H0l0,0v33.391v166.957v33.391l0,0h111.304h33.391h33.391  v-33.391H144.696z M33.391,445.217V278.261h77.913v166.957H33.391z"/>
<polygon points="278.261,33.391 345.043,33.391 345.043,0 278.261,0 244.87,0 244.87,144.696 278.261,144.696 "/>
<polygon points="478.609,211.478 478.609,256 411.826,256 411.826,289.391 478.609,289.391 478.609,333.913 411.826,333.913   411.826,367.304 478.609,367.304 478.609,411.826 512,411.826 512,211.478 "/>
<polygon points="345.043,211.478 378.435,211.478 478.609,211.478 478.609,178.087 378.435,178.087 378.435,33.391 345.043,33.391   345.043,178.087 "/>
<g>
</g>
<g>
</g>
<g>
</g>
<g>
</g>
<g>
</g>
<g>
</g>
<g>
</g>
<g>
</g>
<g>
</g>
<g>
</g>
<g>
</g>
<g>
</g>
<g>
</g>
<g>
</g>
<g>
</g>
</svg>
