<?xml version="1.0" encoding="iso-8859-1"?>
<!-- Generator: Adobe Illustrator 19.0.0, SVG Export Plug-In . SVG Version: 6.00 Build 0)  -->
<svg xmlns="http://www.w3.org/2000/svg" xmlns:xlink="http://www.w3.org/1999/xlink" version="1.1" id="Layer_1" x="0px" y="0px" viewBox="0 0 512 512" style="enable-background:new 0 0 512 512;" xml:space="preserve">
<rect y="77.913" style="fill:#006DF3;" width="512" height="356.174"/>
<polygon style="fill:#E0E3FA;" points="512,144.696 512,77.913 0,77.913 0,144.696 33.391,144.696 33.391,178.087 66.783,178.087   66.783,211.478 100.174,211.478 100.174,244.87 133.565,244.87 133.565,278.261 189.217,278.261 189.217,311.652 322.783,311.652   322.783,278.261 378.435,278.261 378.435,244.87 411.826,244.87 411.826,211.478 445.217,211.478 445.217,178.087 478.609,178.087   478.609,144.696 "/>
<polygon style="fill:#FFFFFF;" points="512,77.913 55.652,77.913 0,77.913 0,133.565 0,434.087 55.652,434.087 55.652,133.565   512,133.565 "/>
<rect x="66.783" y="178.087" width="33.391" height="33.391"/>
<rect x="100.174" y="211.478" width="33.391" height="33.391"/>
<rect x="133.565" y="244.87" width="55.652" height="33.391"/>
<rect x="411.826" y="178.087" width="33.391" height="33.391"/>
<rect x="378.435" y="211.478" width="33.391" height="33.391"/>
<rect x="322.783" y="244.87" width="55.652" height="33.391"/>
<rect x="189.217" y="278.261" width="133.565" height="33.391"/>
<path d="M0,77.913v356.174h512V77.913H0z M478.609,144.696h-33.391v33.391h33.391v222.609H33.391V178.087h33.391v-33.391H33.391  v-33.391h445.217V144.696z"/>
<g>
</g>
<g>
</g>
<g>
</g>
<g>
</g>
<g>
</g>
<g>
</g>
<g>
</g>
<g>
</g>
<g>
</g>
<g>
</g>
<g>
</g>
<g>
</g>
<g>
</g>
<g>
</g>
<g>
</g>
</svg>
