<?xml version="1.0" encoding="iso-8859-1"?>
<!-- Generator: Adobe Illustrator 19.0.0, SVG Export Plug-In . SVG Version: 6.00 Build 0)  -->
<svg xmlns="http://www.w3.org/2000/svg" xmlns:xlink="http://www.w3.org/1999/xlink" version="1.1" id="Layer_1" x="0px" y="0px" viewBox="0 0 512 512" style="enable-background:new 0 0 512 512;" xml:space="preserve">
<polygon style="fill:#60DC4D;" points="300.522,372.87 300.522,339.478 267.13,339.478 267.13,306.087 267.13,294.957   267.13,272.696 278.261,272.696 300.522,272.696 300.522,139.13 278.261,139.13 267.13,139.13 267.13,105.739 233.739,105.739   233.739,72.348 100.174,72.348 100.174,105.739 66.783,105.739 66.783,139.13 33.391,139.13 33.391,272.696 66.783,272.696   66.783,294.957 66.783,306.087 66.783,339.478 33.391,339.478 33.391,372.87 0,372.87 0,439.652 0,473.043 33.391,473.043   300.522,473.043 333.913,473.043 333.913,439.652 333.913,372.87 "/>
<g>
	<polygon style="fill:#FFFFFF;" points="100.174,72.348 100.174,105.739 66.783,105.739 66.783,139.13 33.391,139.13    33.391,172.522 66.783,172.522 100.174,172.522 100.174,139.13 133.565,139.13 133.565,105.739 133.565,72.348  "/>
	<polygon style="fill:#FFFFFF;" points="66.783,339.478 33.391,339.478 33.391,372.87 0,372.87 0,406.261 33.391,406.261    66.783,406.261 66.783,372.87 100.174,372.87 100.174,339.478 100.174,306.087 66.783,306.087  "/>
</g>
<polygon style="fill:#60DC4D;" points="478.609,339.478 478.609,306.087 445.217,306.087 445.217,272.696 445.217,250.435   445.217,239.304 478.609,239.304 478.609,105.739 445.217,105.739 445.217,72.348 411.826,72.348 411.826,38.957 278.261,38.957   278.261,72.348 311.652,72.348 311.652,105.739 333.913,105.739 345.043,105.739 345.043,339.478 367.304,339.478 367.304,406.261   367.304,428.522 367.304,439.652 478.609,439.652 512,439.652 512,406.261 512,339.478 "/>
<rect x="33.391" y="139.13" width="33.391" height="133.565"/>
<rect x="267.13" y="139.13" width="33.391" height="133.565"/>
<rect x="100.174" y="72.348" width="133.565" height="33.391"/>
<rect x="66.783" y="105.739" width="33.391" height="33.391"/>
<rect x="233.739" y="105.739" width="33.391" height="33.391"/>
<polygon points="233.739,306.087 200.348,306.087 200.348,339.478 233.739,339.478 267.13,339.478 267.13,306.087 267.13,272.696   233.739,272.696 "/>
<rect x="33.391" y="339.478" width="33.391" height="33.391"/>
<rect x="267.13" y="339.478" width="33.391" height="33.391"/>
<polygon points="300.522,372.87 300.522,439.652 33.391,439.652 33.391,372.87 0,372.87 0,439.652 0,473.043 33.391,473.043   300.522,473.043 333.913,473.043 333.913,439.652 333.913,372.87 "/>
<polygon points="133.565,339.478 133.565,306.087 100.174,306.087 100.174,272.696 66.783,272.696 66.783,306.087 66.783,339.478   100.174,339.478 "/>
<rect x="445.217" y="105.739" width="33.391" height="133.565"/>
<rect x="278.261" y="38.957" width="133.565" height="33.391"/>
<rect x="411.826" y="72.348" width="33.391" height="33.391"/>
<polygon points="445.217,239.304 411.826,239.304 411.826,272.696 378.435,272.696 378.435,306.087 411.826,306.087   445.217,306.087 445.217,272.696 "/>
<rect x="445.217" y="306.087" width="33.391" height="33.391"/>
<polygon points="478.609,339.478 478.609,406.261 367.304,406.261 367.304,439.652 478.609,439.652 512,439.652 512,406.261   512,339.478 "/>
<g>
</g>
<g>
</g>
<g>
</g>
<g>
</g>
<g>
</g>
<g>
</g>
<g>
</g>
<g>
</g>
<g>
</g>
<g>
</g>
<g>
</g>
<g>
</g>
<g>
</g>
<g>
</g>
<g>
</g>
</svg>
