<?xml version="1.0" encoding="iso-8859-1"?>
<!-- Generator: Adobe Illustrator 19.0.0, SVG Export Plug-In . SVG Version: 6.00 Build 0)  -->
<svg xmlns="http://www.w3.org/2000/svg" xmlns:xlink="http://www.w3.org/1999/xlink" version="1.1" id="Layer_1" x="0px" y="0px" viewBox="0 0 512 512" style="enable-background:new 0 0 512 512;" xml:space="preserve">
<polygon style="fill:#FF52A0;" points="478.609,100.174 478.609,66.783 445.217,66.783 445.217,33.391 411.826,33.391 411.826,0   200.348,0 200.348,33.391 166.957,33.391 166.957,66.783 133.565,66.783 133.565,100.174 100.174,100.174 100.174,345.043   66.783,345.043 66.783,378.435 33.391,378.435 33.391,411.826 0,411.826 0,478.609 33.391,478.609 33.391,512 100.174,512   100.174,478.609 133.565,478.609 133.565,445.217 166.957,445.217 166.957,411.826 411.826,411.826 411.826,378.435   445.217,378.435 445.217,345.043 478.609,345.043 478.609,311.652 512,311.652 512,100.174 "/>
<g>
	<polygon style="fill:#FFFFFF;" points="200.348,0 200.348,33.391 166.957,33.391 166.957,66.783 133.565,66.783 133.565,100.174    100.174,100.174 100.174,133.565 133.565,133.565 166.957,133.565 166.957,100.174 200.348,100.174 200.348,66.783 233.739,66.783    233.739,33.391 233.739,0  "/>
	<polygon style="fill:#FFFFFF;" points="100.174,311.652 100.174,345.043 66.783,345.043 66.783,378.435 33.391,378.435    33.391,411.826 0,411.826 0,445.217 33.391,445.217 66.783,445.217 66.783,411.826 100.174,411.826 100.174,378.435    133.565,378.435 133.565,345.043 133.565,311.652  "/>
</g>
<rect y="411.826" width="33.391" height="66.783"/>
<polygon points="133.565,311.652 133.565,100.174 100.174,100.174 100.174,311.652 100.174,345.043 133.565,345.043 "/>
<rect x="66.783" y="345.043" width="33.391" height="33.391"/>
<rect x="33.391" y="378.435" width="33.391" height="33.391"/>
<rect x="33.391" y="478.609" width="66.783" height="33.391"/>
<polygon points="166.957,378.435 166.957,411.826 200.348,411.826 411.826,411.826 411.826,378.435 200.348,378.435 "/>
<rect x="133.565" y="411.826" width="33.391" height="33.391"/>
<rect x="100.174" y="445.217" width="33.391" height="33.391"/>
<rect x="478.609" y="100.174" width="33.391" height="211.478"/>
<rect x="200.348" width="211.478" height="33.391"/>
<rect x="133.565" y="66.783" width="33.391" height="33.391"/>
<rect x="166.957" y="33.391" width="33.391" height="33.391"/>
<rect x="411.826" y="33.391" width="33.391" height="33.391"/>
<rect x="445.217" y="66.783" width="33.391" height="33.391"/>
<rect x="445.217" y="311.652" width="33.391" height="33.391"/>
<rect x="411.826" y="345.043" width="33.391" height="33.391"/>
<polygon style="fill:#FFFFFF;" points="339.478,178.087 339.478,131.975 339.478,100.174 306.087,100.174 272.696,100.174   272.696,131.975 272.696,178.087 222.609,178.087 189.217,178.087 189.217,211.478 189.217,244.87 222.609,244.87 272.696,244.87   272.696,290.982 272.696,322.783 306.087,322.783 339.478,322.783 339.478,290.982 339.478,244.87 389.565,244.87 422.957,244.87   422.957,211.478 422.957,178.087 389.565,178.087 "/>
<g>
</g>
<g>
</g>
<g>
</g>
<g>
</g>
<g>
</g>
<g>
</g>
<g>
</g>
<g>
</g>
<g>
</g>
<g>
</g>
<g>
</g>
<g>
</g>
<g>
</g>
<g>
</g>
<g>
</g>
</svg>
