<?xml version="1.0" encoding="iso-8859-1"?>
<!-- Generator: Adobe Illustrator 19.0.0, SVG Export Plug-In . SVG Version: 6.00 Build 0)  -->
<svg xmlns="http://www.w3.org/2000/svg" xmlns:xlink="http://www.w3.org/1999/xlink" version="1.1" id="Layer_1" x="0px" y="0px" viewBox="0 0 512 512" style="enable-background:new 0 0 512 512;" xml:space="preserve">
<polygon style="fill:#FFFFFF;" points="411.826,155.826 411.826,122.435 0,122.435 0,389.565 411.826,389.565 411.826,356.174   512,356.174 512,155.826 "/>
<polygon points="33.391,155.826 411.826,155.826 411.826,122.435 33.391,122.435 0,122.435 0,155.826 0,356.174 0,389.565   33.391,389.565 411.826,389.565 411.826,356.174 33.391,356.174 "/>
<polygon points="478.609,155.826 411.826,155.826 411.826,189.217 478.609,189.217 478.609,322.783 411.826,322.783   411.826,356.174 478.609,356.174 512,356.174 512,322.783 512,189.217 512,155.826 "/>
<polygon style="fill:#00C37A;" points="378.429,189.22 378.429,189.217 345.038,189.217 345.038,189.22 100.174,189.22   100.174,189.217 66.783,189.217 66.783,289.391 66.781,289.391 66.781,322.783 66.783,322.783 66.783,322.783 66.785,322.783   66.785,322.785 378.435,322.785 378.433,189.22 "/>
<g>
</g>
<g>
</g>
<g>
</g>
<g>
</g>
<g>
</g>
<g>
</g>
<g>
</g>
<g>
</g>
<g>
</g>
<g>
</g>
<g>
</g>
<g>
</g>
<g>
</g>
<g>
</g>
<g>
</g>
</svg>
