<?xml version="1.0" encoding="iso-8859-1"?>
<!-- Generator: Adobe Illustrator 19.0.0, SVG Export Plug-In . SVG Version: 6.00 Build 0)  -->
<svg xmlns="http://www.w3.org/2000/svg" xmlns:xlink="http://www.w3.org/1999/xlink" version="1.1" id="Layer_1" x="0px" y="0px" viewBox="0 0 512 512" style="enable-background:new 0 0 512 512;" xml:space="preserve">
<rect x="445.774" y="122.435" width="33.391" height="267.13"/>
<rect x="378.991" y="178.087" width="33.391" height="155.826"/>
<polygon style="fill:#006DF3;" points="311.096,33.391 311.096,0 244.313,0 244.313,33.391 210.922,33.391 210.922,66.783   177.53,66.783 177.53,100.174 144.139,100.174 144.139,133.565 66.226,133.565 66.226,166.957 32.835,166.957 32.835,345.043   66.226,345.043 66.226,378.435 144.139,378.435 144.139,411.826 177.53,411.826 177.53,445.217 210.922,445.217 210.922,478.609   244.313,478.609 244.313,512 311.096,512 311.096,478.609 344.487,478.609 344.487,33.391 "/>
<polygon style="fill:#FFFFFF;" points="311.096,33.391 311.096,0 244.313,0 244.313,33.391 210.922,33.391 210.922,66.783   177.53,66.783 177.53,100.174 144.139,100.174 144.139,133.565 66.226,133.565 66.226,166.957 32.835,166.957 32.835,200.348   144.139,200.348 144.139,166.957 177.53,166.957 177.53,133.565 210.922,133.565 210.922,100.174 244.313,100.174 244.313,66.783   344.487,66.783 344.487,33.391 "/>
<rect x="32.835" y="166.957" width="33.391" height="178.087"/>
<rect x="311.096" y="33.391" width="33.391" height="445.217"/>
<rect x="66.226" y="133.565" width="77.913" height="33.391"/>
<rect x="66.226" y="345.043" width="77.913" height="33.391"/>
<rect x="144.139" y="100.174" width="33.391" height="33.391"/>
<rect x="177.53" y="66.783" width="33.391" height="33.391"/>
<rect x="210.922" y="33.391" width="33.391" height="33.391"/>
<rect x="244.313" width="66.783" height="33.391"/>
<rect x="144.139" y="378.435" width="33.391" height="33.391"/>
<rect x="177.53" y="411.826" width="33.391" height="33.391"/>
<rect x="210.922" y="445.217" width="33.391" height="33.391"/>
<rect x="244.313" y="478.609" width="66.783" height="33.391"/>
<g>
</g>
<g>
</g>
<g>
</g>
<g>
</g>
<g>
</g>
<g>
</g>
<g>
</g>
<g>
</g>
<g>
</g>
<g>
</g>
<g>
</g>
<g>
</g>
<g>
</g>
<g>
</g>
<g>
</g>
</svg>
