<?xml version="1.0" encoding="iso-8859-1"?>
<!-- Generator: Adobe Illustrator 19.0.0, SVG Export Plug-In . SVG Version: 6.00 Build 0)  -->
<svg xmlns="http://www.w3.org/2000/svg" xmlns:xlink="http://www.w3.org/1999/xlink" version="1.1" id="Layer_1" x="0px" y="0px" viewBox="0 0 512 512" style="enable-background:new 0 0 512 512;" xml:space="preserve">
<rect x="411.826" y="178.087" width="33.391" height="155.826"/>
<polygon style="fill:#006DF3;" points="345.043,33.391 345.043,0 278.261,0 278.261,33.391 244.87,33.391 244.87,66.783   211.478,66.783 211.478,100.174 178.087,100.174 178.087,133.565 100.174,133.565 100.174,166.957 66.783,166.957 66.783,345.043   100.174,345.043 100.174,378.435 178.087,378.435 178.087,411.826 211.478,411.826 211.478,445.217 244.87,445.217 244.87,478.609   278.261,478.609 278.261,512 345.043,512 345.043,478.609 378.435,478.609 378.435,33.391 "/>
<polygon style="fill:#FFFFFF;" points="345.043,33.391 345.043,0 278.261,0 278.261,33.391 244.87,33.391 244.87,66.783   211.478,66.783 211.478,100.174 178.087,100.174 178.087,133.565 100.174,133.565 100.174,166.957 66.783,166.957 66.783,200.348   178.087,200.348 178.087,166.957 211.478,166.957 211.478,133.565 244.87,133.565 244.87,100.174 278.261,100.174 278.261,66.783   378.435,66.783 378.435,33.391 "/>
<rect x="66.783" y="166.957" width="33.391" height="178.087"/>
<rect x="345.043" y="33.391" width="33.391" height="445.217"/>
<rect x="100.174" y="133.565" width="77.913" height="33.391"/>
<rect x="100.174" y="345.043" width="77.913" height="33.391"/>
<rect x="178.087" y="100.174" width="33.391" height="33.391"/>
<rect x="211.478" y="66.783" width="33.391" height="33.391"/>
<rect x="244.87" y="33.391" width="33.391" height="33.391"/>
<rect x="278.261" width="66.783" height="33.391"/>
<rect x="178.087" y="378.435" width="33.391" height="33.391"/>
<rect x="211.478" y="411.826" width="33.391" height="33.391"/>
<rect x="244.87" y="445.217" width="33.391" height="33.391"/>
<rect x="278.261" y="478.609" width="66.783" height="33.391"/>
<g>
</g>
<g>
</g>
<g>
</g>
<g>
</g>
<g>
</g>
<g>
</g>
<g>
</g>
<g>
</g>
<g>
</g>
<g>
</g>
<g>
</g>
<g>
</g>
<g>
</g>
<g>
</g>
<g>
</g>
</svg>
