<?xml version="1.0" encoding="iso-8859-1"?>
<!-- Generator: Adobe Illustrator 19.0.0, SVG Export Plug-In . SVG Version: 6.00 Build 0)  -->
<svg xmlns="http://www.w3.org/2000/svg" xmlns:xlink="http://www.w3.org/1999/xlink" version="1.1" id="Layer_1" x="0px" y="0px" viewBox="0 0 512 512" style="enable-background:new 0 0 512 512;" xml:space="preserve">
<polygon style="fill:#002C6A;" points="478.609,155.826 478.609,100.174 445.217,100.174 445.217,66.783 411.826,66.783   411.826,33.391 356.174,33.391 356.174,0 155.826,0 155.826,33.391 100.174,33.391 100.174,66.783 66.783,66.783 66.783,100.174   33.391,100.174 33.391,155.826 0.008,155.829 0.008,356.177 33.391,356.177 33.391,411.826 66.783,411.826 66.783,422.957   66.783,445.217 100.174,445.217 100.174,456.348 100.174,478.609 155.826,478.609 155.826,489.739 155.826,512 356.174,512   356.174,489.739 356.174,478.609 411.826,478.609 411.826,456.348 411.826,445.217 445.217,445.217 445.217,422.957   445.217,411.826 478.609,411.826 478.609,356.177 489.746,356.177 489.746,356.174 512,356.174 512,155.826 "/>
<g>
	<polygon style="fill:#006DF3;" points="155.826,33.391 100.174,33.391 100.174,66.783 66.783,66.783 66.783,100.174    33.391,100.174 33.391,155.826 0,155.826 0,256 33.391,256 66.783,256 66.783,155.826 100.174,155.826 100.174,100.174    155.826,100.174 155.826,66.783 256,66.783 256,33.391 256,0 155.826,0  "/>
	<polygon style="fill:#006DF3;" points="289.391,0 289.391,33.391 289.391,66.783 322.783,66.783 322.783,33.391 322.783,0  "/>
	<polygon style="fill:#006DF3;" points="0,289.391 0,322.783 33.391,322.783 66.783,322.783 66.783,289.391 33.391,289.391  "/>
</g>
<rect x="100.174" y="33.391" width="55.652" height="33.391"/>
<rect x="66.783" y="66.783" width="33.391" height="33.391"/>
<rect x="33.391" y="100.174" width="33.391" height="55.652"/>
<rect x="33.391" y="356.174" width="33.391" height="55.652"/>
<rect x="66.783" y="411.826" width="33.391" height="33.391"/>
<rect x="100.174" y="445.217" width="55.652" height="33.391"/>
<rect x="155.826" width="200.348" height="33.391"/>
<rect x="155.826" y="478.609" width="200.348" height="33.391"/>
<rect y="155.826" width="33.391" height="200.348"/>
<rect x="356.174" y="33.391" width="55.652" height="33.391"/>
<rect x="411.826" y="66.783" width="33.391" height="33.391"/>
<rect x="445.217" y="100.174" width="33.391" height="55.652"/>
<rect x="445.217" y="356.174" width="33.391" height="55.652"/>
<rect x="411.826" y="411.826" width="33.391" height="33.391"/>
<rect x="356.174" y="445.217" width="55.652" height="33.391"/>
<rect x="478.609" y="155.826" width="33.391" height="200.348"/>
<polygon style="fill:#FB0023;" points="311.652,122.435 311.652,155.826 278.261,155.826 278.261,189.217 233.739,189.217   233.739,155.826 200.348,155.826 200.348,122.435 122.435,122.435 122.435,166.957 155.826,166.957 155.826,200.348   189.217,200.348 189.217,233.739 222.609,233.739 222.609,267.13 189.217,267.13 189.217,300.522 155.826,300.522 155.826,333.913   122.435,333.913 122.435,345.043 122.435,378.435 200.348,378.435 200.348,345.043 233.739,345.043 233.739,311.652   278.261,311.652 278.261,345.043 311.652,345.043 311.652,378.435 389.565,378.435 389.565,333.913 356.174,333.913   356.174,300.522 322.783,300.522 322.783,267.13 289.391,267.13 289.391,233.739 322.783,233.739 322.783,200.348 356.174,200.348   356.174,166.957 389.565,166.957 389.565,155.826 389.565,122.435 "/>
<g>
</g>
<g>
</g>
<g>
</g>
<g>
</g>
<g>
</g>
<g>
</g>
<g>
</g>
<g>
</g>
<g>
</g>
<g>
</g>
<g>
</g>
<g>
</g>
<g>
</g>
<g>
</g>
<g>
</g>
</svg>
