<?xml version="1.0" encoding="iso-8859-1"?>
<!-- Generator: Adobe Illustrator 19.0.0, SVG Export Plug-In . SVG Version: 6.00 Build 0)  -->
<svg xmlns="http://www.w3.org/2000/svg" xmlns:xlink="http://www.w3.org/1999/xlink" version="1.1" id="Layer_1" x="0px" y="0px" viewBox="0 0 512 512" style="enable-background:new 0 0 512 512;" xml:space="preserve">
<rect x="77.913" y="200.348" style="fill:#00CCB2;" width="356.174" height="311.652"/>
<polygon style="fill:#FFFFFF;" points="434.087,200.348 133.565,200.348 133.565,200.348 77.913,200.348 77.913,512 133.565,512   133.565,256 434.087,256 "/>
<rect x="189.217" width="133.565" height="33.391"/>
<path d="M389.565,200.348V66.783h-33.391v133.565H155.826V66.783h-33.391v133.565H77.913V512h356.174V200.348H389.565z   M400.696,478.609H111.304v-244.87h289.391V478.609z"/>
<rect x="155.826" y="33.391" width="33.391" height="33.391"/>
<rect x="322.783" y="33.391" width="33.391" height="33.391"/>
<polygon points="244.87,422.957 267.13,422.957 267.13,367.304 289.391,367.304 289.391,300.522 222.609,300.522 222.609,367.304   244.87,367.304 "/>
<g>
</g>
<g>
</g>
<g>
</g>
<g>
</g>
<g>
</g>
<g>
</g>
<g>
</g>
<g>
</g>
<g>
</g>
<g>
</g>
<g>
</g>
<g>
</g>
<g>
</g>
<g>
</g>
<g>
</g>
</svg>
