<?xml version="1.0" encoding="iso-8859-1"?>
<!-- Generator: Adobe Illustrator 19.0.0, SVG Export Plug-In . SVG Version: 6.00 Build 0)  -->
<svg xmlns="http://www.w3.org/2000/svg" xmlns:xlink="http://www.w3.org/1999/xlink" version="1.1" id="Layer_1" x="0px" y="0px" viewBox="0 0 512 512" style="enable-background:new 0 0 512 512;" xml:space="preserve">
<rect x="66.783" y="300.522" style="fill:#FF52A0;" width="111.304" height="144.696"/>
<rect x="222.609" y="155.826" style="fill:#FFDE46;" width="111.304" height="289.391"/>
<rect x="378.435" y="33.391" style="fill:#006DF3;" width="111.304" height="411.826"/>
<polygon points="33.391,478.609 33.391,0 0,0 0,478.609 0,512 33.391,512 512,512 512,478.609 "/>
<path d="M411.827,445.217h44.521h33.391V33.391h-0.002V33.39H378.435v33.391h0.001v345.045h-0.001v33.391h0.001H411.827z   M411.827,66.781h44.521v345.045h-44.521V66.781z"/>
<path d="M256.001,445.217h44.521h33.391v-289.39h-0.002v-0.001H222.609v33.391h0.001v222.609h-0.001v33.391h0.001H256.001z   M256.001,189.217h44.521v222.609h-44.521V189.217z"/>
<path d="M100.175,445.217h44.521h33.391V300.523h-0.002v-0.001H66.783v33.391h0.001v77.913h-0.001v33.391h0.001H100.175z   M100.175,333.913h44.521v77.913h-44.521V333.913z"/>
<g>
</g>
<g>
</g>
<g>
</g>
<g>
</g>
<g>
</g>
<g>
</g>
<g>
</g>
<g>
</g>
<g>
</g>
<g>
</g>
<g>
</g>
<g>
</g>
<g>
</g>
<g>
</g>
<g>
</g>
</svg>
