<?xml version="1.0" encoding="iso-8859-1"?>
<!-- Generator: Adobe Illustrator 19.0.0, SVG Export Plug-In . SVG Version: 6.00 Build 0)  -->
<svg xmlns="http://www.w3.org/2000/svg" xmlns:xlink="http://www.w3.org/1999/xlink" version="1.1" id="Layer_1" x="0px" y="0px" viewBox="0 0 512 512" style="enable-background:new 0 0 512 512;" xml:space="preserve">
<path style="fill:#83C9FF;" d="M445.217,0L445.217,0h-33.391l0,0H200.348h-33.391h-33.391v33.391h-33.391v33.391l0,0H66.783V512  h33.391l0,0h345.043v-33.391V33.391V0L445.217,0z M100.174,478.609L100.174,478.609"/>
<g>
	<rect x="166.957" style="fill:#FFFFFF;" width="278.261" height="66.783"/>
	<rect x="66.783" y="100.174" style="fill:#FFFFFF;" width="66.783" height="411.826"/>
</g>
<path d="M445.217,33.391V0l0,0l0,0h-33.391l0,0H200.348h-33.391h-33.391v33.391h33.391v66.783h-66.783V66.783H66.783V512h33.391l0,0  h345.043v-33.391l0,0V33.391L445.217,33.391z M411.826,478.609H100.174V133.565h66.783h33.391v-33.391V33.391h211.478V478.609z"/>
<rect x="100.174" y="33.391" width="33.391" height="33.391"/>
<g>
</g>
<g>
</g>
<g>
</g>
<g>
</g>
<g>
</g>
<g>
</g>
<g>
</g>
<g>
</g>
<g>
</g>
<g>
</g>
<g>
</g>
<g>
</g>
<g>
</g>
<g>
</g>
<g>
</g>
</svg>
