<?xml version="1.0" encoding="iso-8859-1"?>
<!-- Generator: Adobe Illustrator 19.0.0, SVG Export Plug-In . SVG Version: 6.00 Build 0)  -->
<svg xmlns="http://www.w3.org/2000/svg" xmlns:xlink="http://www.w3.org/1999/xlink" version="1.1" id="Layer_1" x="0px" y="0px" viewBox="0 0 512 512" style="enable-background:new 0 0 512 512;" xml:space="preserve">
<rect style="fill:#FFDE46;" width="233.739" height="233.739"/>
<rect x="278.261" style="fill:#B757D1;" width="233.739" height="233.739"/>
<rect y="278.261" style="fill:#FF52A0;" width="233.739" height="233.739"/>
<rect x="278.261" y="278.261" style="fill:#006DF3;" width="233.739" height="233.739"/>
<path d="M33.391,0H0v33.391v166.957v33.391h33.391h166.957h33.391v-33.391V33.391V0h-33.391H33.391z M200.348,200.348H33.391V33.391  h166.957V200.348z"/>
<path d="M478.609,0H311.652h-33.391v33.391v166.957v33.391h33.391h166.957H512v-33.391V33.391V0H478.609z M478.609,200.348H311.652  V33.391h166.957V200.348z"/>
<path d="M33.391,278.261H0v33.391v166.957V512h33.391h166.957h33.391v-33.391V311.652v-33.391h-33.391H33.391z M200.348,478.609  H33.391V311.652h166.957V478.609z"/>
<path d="M311.652,278.261h-33.391v33.391v166.957V512h33.391h166.957H512v-33.391V311.652v-33.391h-33.391H311.652z   M478.609,478.609H311.652V311.652h166.957V478.609z"/>
<g>
</g>
<g>
</g>
<g>
</g>
<g>
</g>
<g>
</g>
<g>
</g>
<g>
</g>
<g>
</g>
<g>
</g>
<g>
</g>
<g>
</g>
<g>
</g>
<g>
</g>
<g>
</g>
<g>
</g>
</svg>
