<?xml version="1.0" encoding="iso-8859-1"?>
<!-- Generator: Adobe Illustrator 19.0.0, SVG Export Plug-In . SVG Version: 6.00 Build 0)  -->
<svg xmlns="http://www.w3.org/2000/svg" xmlns:xlink="http://www.w3.org/1999/xlink" version="1.1" id="Layer_1" x="0px" y="0px" viewBox="0 0 512 512" style="enable-background:new 0 0 512 512;" xml:space="preserve">
<polygon style="fill:#E0E3FA;" points="0,27.826 0,417.391 200.348,417.391 200.348,484.174 267.13,484.174 267.13,450.783   300.522,450.783 300.522,417.391 512,417.391 512,27.826 "/>
<polygon style="fill:#FFFFFF;" points="512,27.826 55.652,27.826 0,27.826 0,83.478 0,417.391 55.652,417.391 55.652,83.478   512,83.478 "/>
<polygon style="fill:#FF52A0;" points="345.043,128 278.261,128 278.261,161.391 244.87,161.391 244.87,128 178.087,128   178.087,161.391 144.696,161.391 144.696,261.565 178.087,261.565 178.087,294.957 244.87,294.957 244.87,328.348 278.261,328.348   278.261,294.957 345.043,294.957 345.043,261.565 378.435,261.565 378.435,161.391 345.043,161.391 "/>
<rect x="267.13" y="417.391" width="33.391" height="33.391"/>
<polygon points="0,27.826 0,417.391 200.348,417.391 200.348,484.174 233.739,484.174 267.13,484.174 267.13,450.783   233.739,450.783 233.739,384 33.391,384 33.391,61.217 478.609,61.217 478.609,384 300.522,384 300.522,417.391 512,417.391   512,27.826 "/>
<g>
</g>
<g>
</g>
<g>
</g>
<g>
</g>
<g>
</g>
<g>
</g>
<g>
</g>
<g>
</g>
<g>
</g>
<g>
</g>
<g>
</g>
<g>
</g>
<g>
</g>
<g>
</g>
<g>
</g>
</svg>
