<?xml version="1.0" encoding="iso-8859-1"?>
<!-- Generator: Adobe Illustrator 19.0.0, SVG Export Plug-In . SVG Version: 6.00 Build 0)  -->
<svg xmlns="http://www.w3.org/2000/svg" xmlns:xlink="http://www.w3.org/1999/xlink" version="1.1" id="Layer_1" x="0px" y="0px" viewBox="0 0 512 512" style="enable-background:new 0 0 512 512;" xml:space="preserve">
<polygon style="fill:#FFDE46;" points="478.609,155.826 478.609,100.174 445.217,100.174 445.217,66.783 411.826,66.783   411.826,33.391 356.174,33.391 356.174,0 155.826,0 155.826,33.391 100.174,33.391 100.174,66.783 66.783,66.783 66.783,100.174   33.391,100.174 33.391,155.826 0.008,155.829 0.008,356.177 33.391,356.177 33.391,411.826 66.783,411.826 66.783,422.957   66.783,445.217 100.174,445.217 100.174,456.348 100.174,478.609 155.826,478.609 155.826,489.739 155.826,512 356.174,512   356.174,489.739 356.174,478.609 411.826,478.609 411.826,456.348 411.826,445.217 445.217,445.217 445.217,422.957   445.217,411.826 478.609,411.826 478.609,356.177 489.746,356.177 489.746,356.174 512,356.174 512,155.826 "/>
<polygon style="fill:#FFFFFF;" points="478.609,155.826 478.609,100.174 445.217,100.174 445.217,66.783 411.826,66.783   411.826,33.391 356.174,33.391 356.174,0 155.826,0 155.826,33.391 100.174,33.391 100.174,66.783 66.783,66.783 66.783,100.174   33.391,100.174 33.391,155.826 0,155.826 0,189.217 33.391,189.217 66.783,189.217 66.783,155.826 66.783,133.565 100.174,133.565   100.174,100.174 133.565,100.174 133.565,66.783 155.826,66.783 356.174,66.783 378.435,66.783 378.435,100.174 411.826,100.174   411.826,133.565 445.217,133.565 445.217,155.826 445.217,189.217 478.609,189.217 512,189.217 512,155.826 "/>
<rect x="100.174" y="33.391" width="55.652" height="33.391"/>
<rect x="66.783" y="66.783" width="33.391" height="33.391"/>
<rect x="33.391" y="100.174" width="33.391" height="55.652"/>
<rect x="33.391" y="356.174" width="33.391" height="55.652"/>
<rect x="66.783" y="411.826" width="33.391" height="33.391"/>
<rect x="100.174" y="445.217" width="55.652" height="33.391"/>
<rect x="155.826" width="200.348" height="33.391"/>
<rect x="155.826" y="478.609" width="200.348" height="33.391"/>
<rect y="155.826" width="33.391" height="200.348"/>
<rect x="356.174" y="33.391" width="55.652" height="33.391"/>
<rect x="411.826" y="66.783" width="33.391" height="33.391"/>
<rect x="445.217" y="100.174" width="33.391" height="55.652"/>
<rect x="445.217" y="356.174" width="33.391" height="55.652"/>
<rect x="411.826" y="411.826" width="33.391" height="33.391"/>
<rect x="356.174" y="445.217" width="55.652" height="33.391"/>
<rect x="478.609" y="155.826" width="33.391" height="200.348"/>
<polygon style="fill:#FB0023;" points="345.043,311.652 311.652,311.652 311.652,278.261 200.348,278.261 200.348,311.652   166.957,311.652 166.957,411.826 200.348,411.826 200.348,445.217 311.652,445.217 311.652,411.826 345.043,411.826 "/>
<polygon points="155.826,144.696 122.435,144.696 122.435,189.217 77.913,189.217 77.913,222.609 122.435,222.609 122.435,267.13   155.826,267.13 155.826,222.609 200.348,222.609 200.348,189.217 155.826,189.217 "/>
<polygon points="434.087,189.217 389.565,189.217 389.565,144.696 356.174,144.696 356.174,189.217 311.652,189.217   311.652,222.609 356.174,222.609 356.174,267.13 389.565,267.13 389.565,222.609 434.087,222.609 "/>
<rect x="166.957" y="311.652" width="33.391" height="100.174"/>
<rect x="311.652" y="311.652" width="33.391" height="100.174"/>
<rect x="200.348" y="411.826" width="111.304" height="33.391"/>
<rect x="200.348" y="278.261" width="111.304" height="33.391"/>
<g>
</g>
<g>
</g>
<g>
</g>
<g>
</g>
<g>
</g>
<g>
</g>
<g>
</g>
<g>
</g>
<g>
</g>
<g>
</g>
<g>
</g>
<g>
</g>
<g>
</g>
<g>
</g>
<g>
</g>
</svg>
