<?xml version="1.0" encoding="iso-8859-1"?>
<!-- Generator: Adobe Illustrator 19.0.0, SVG Export Plug-In . SVG Version: 6.00 Build 0)  -->
<svg xmlns="http://www.w3.org/2000/svg" xmlns:xlink="http://www.w3.org/1999/xlink" version="1.1" id="Layer_1" x="0px" y="0px" viewBox="0 0 512 512" style="enable-background:new 0 0 512 512;" xml:space="preserve">
<polygon style="fill:#83C9FF;" points="512,200.348 512,133.565 478.609,133.565 478.609,33.391 445.217,33.391 445.217,0   411.826,0 345.043,0 345.043,33.391 311.652,33.391 311.652,66.783 300.522,66.783 211.478,66.783 200.348,66.783 200.348,33.391   166.957,33.391 166.957,0 100.174,0 66.783,0 66.783,33.391 33.391,33.391 33.391,133.565 0,133.565 0,166.957 0,200.348   33.391,200.348 33.391,233.739 33.391,478.609 33.399,478.609 33.399,478.612 66.783,478.612 66.783,512 200.348,512 311.652,512   445.217,512 445.217,478.614 478.616,478.614 478.616,233.745 478.609,233.745 478.609,200.348 "/>
<polygon style="fill:#FB0023;" points="445.217,33.391 445.217,0 411.826,0 345.043,0 345.043,33.391 311.652,33.391   311.652,66.783 300.522,66.783 211.478,66.783 200.348,66.783 200.348,33.391 166.957,33.391 166.957,0 100.174,0 66.783,0   66.783,33.391 33.391,33.391 33.391,166.957 89.043,166.957 100.174,166.957 200.348,166.957 200.348,512 311.652,512   311.652,166.957 411.826,166.957 456.348,166.957 478.609,166.957 478.609,33.391 "/>
<g>
	<polygon style="fill:#85000E;" points="166.957,100.174 166.957,66.783 100.174,66.783 100.174,166.957 200.348,166.957    200.348,100.174  "/>
	<polygon style="fill:#85000E;" points="345.043,100.174 345.043,66.783 411.826,66.783 411.826,166.957 311.652,166.957    311.652,100.174  "/>
</g>
<rect x="166.957" y="33.391" width="33.391" height="33.391"/>
<rect x="66.783" width="100.174" height="33.391"/>
<rect x="311.652" y="33.391" width="33.391" height="33.391"/>
<rect x="200.348" y="66.783" width="111.304" height="33.391"/>
<path d="M512,133.565h-33.391V33.391h-33.391V0H345.043v33.391h100.174v100.174H345.043v-33.391h-33.391v33.391H200.348v-33.391  h-33.391v33.391H66.783V33.391H33.391v100.174H0l0,0v33.391l0,0v33.391h33.391v33.391l0,0v244.87h33.391V512h378.435v-33.391  H311.652v-244.87h133.565v244.87h33.391V200.348H512V133.565L512,133.565z M278.261,166.957v33.391h-44.522v-33.391H278.261z   M200.348,166.957v33.391H66.783H33.391v-33.391H200.348z M66.783,478.609v-244.87h133.565v244.87H66.783z M278.261,478.609h-44.522  v-244.87h44.522V478.609z M478.609,200.348h-33.391H311.652v-33.391h166.957V200.348L478.609,200.348z"/>
<g>
</g>
<g>
</g>
<g>
</g>
<g>
</g>
<g>
</g>
<g>
</g>
<g>
</g>
<g>
</g>
<g>
</g>
<g>
</g>
<g>
</g>
<g>
</g>
<g>
</g>
<g>
</g>
<g>
</g>
</svg>
