<?xml version="1.0" encoding="iso-8859-1"?>
<!-- Generator: Adobe Illustrator 19.0.0, SVG Export Plug-In . SVG Version: 6.00 Build 0)  -->
<svg xmlns="http://www.w3.org/2000/svg" xmlns:xlink="http://www.w3.org/1999/xlink" version="1.1" id="Layer_1" x="0px" y="0px" viewBox="0 0 512 512" style="enable-background:new 0 0 512 512;" xml:space="preserve">
<polygon style="fill:#00CCB2;" points="478.609,0 33.391,0 33.391,478.609 66.783,478.609 66.783,512 445.217,512 445.217,478.609   478.609,478.609 "/>
<polygon style="fill:#FFFFFF;" points="100.174,0 66.783,0 33.391,0 33.391,478.609 66.783,478.609 66.783,512 100.174,512   100.174,478.609 100.174,66.783 478.609,66.783 478.609,0 "/>
<polygon points="478.609,0 445.217,0 66.783,0 33.391,0 33.391,0 33.391,33.391 33.391,33.391 33.391,478.609 66.783,478.609   66.783,512 445.217,512 445.217,478.609 66.783,478.609 66.783,33.391 445.217,33.391 445.217,478.609 478.609,478.609 "/>
<rect x="311.652" y="155.826" width="33.391" height="33.391"/>
<rect x="345.043" y="66.783" width="33.391" height="89.043"/>
<rect x="200.348" y="189.217" width="111.304" height="33.391"/>
<rect x="166.957" y="155.826" width="33.391" height="33.391"/>
<rect x="133.565" y="66.783" width="33.391" height="89.043"/>
<g>
</g>
<g>
</g>
<g>
</g>
<g>
</g>
<g>
</g>
<g>
</g>
<g>
</g>
<g>
</g>
<g>
</g>
<g>
</g>
<g>
</g>
<g>
</g>
<g>
</g>
<g>
</g>
<g>
</g>
</svg>
