<?xml version="1.0" encoding="iso-8859-1"?>
<!-- Generator: Adobe Illustrator 19.0.0, SVG Export Plug-In . SVG Version: 6.00 Build 0)  -->
<svg xmlns="http://www.w3.org/2000/svg" xmlns:xlink="http://www.w3.org/1999/xlink" version="1.1" id="Layer_1" x="0px" y="0px" viewBox="0 0 512 512" style="enable-background:new 0 0 512 512;" xml:space="preserve">
<polygon style="fill:#00CCB2;" points="445.217,122.435 66.783,122.435 66.783,478.609 100.174,478.609 100.174,512 411.826,512   411.826,478.609 445.217,478.609 "/>
<polygon style="fill:#FFFFFF;" points="133.565,122.435 66.783,122.435 66.783,189.217 66.783,478.609 100.174,478.609 100.174,512   133.565,512 133.565,478.609 133.565,456.348 133.565,189.217 445.217,189.217 445.217,122.435 "/>
<rect x="166.957" y="33.391" width="33.391" height="33.391"/>
<rect x="200.348" width="111.304" height="33.391"/>
<polygon points="445.217,122.435 411.826,122.435 378.435,122.435 378.435,66.781 345.047,66.781 345.047,33.391 311.655,33.391   311.655,66.783 345.043,66.783 345.043,122.435 166.957,122.435 166.957,66.783 133.565,66.783 133.565,122.435 100.174,122.435   66.783,122.435 66.783,122.435 66.783,155.826 66.783,155.826 66.783,478.609 100.174,478.609 100.174,512 411.826,512   411.826,478.609 100.174,478.609 100.174,155.826 133.565,155.826 133.565,189.217 166.957,189.217 166.957,155.826   345.043,155.826 345.043,189.216 378.435,189.216 378.435,155.826 411.826,155.826 411.826,478.609 445.217,478.609 "/>
<g>
</g>
<g>
</g>
<g>
</g>
<g>
</g>
<g>
</g>
<g>
</g>
<g>
</g>
<g>
</g>
<g>
</g>
<g>
</g>
<g>
</g>
<g>
</g>
<g>
</g>
<g>
</g>
<g>
</g>
</svg>
