<?xml version="1.0" encoding="iso-8859-1"?>
<!-- Generator: Adobe Illustrator 19.0.0, SVG Export Plug-In . SVG Version: 6.00 Build 0)  -->
<svg xmlns="http://www.w3.org/2000/svg" xmlns:xlink="http://www.w3.org/1999/xlink" version="1.1" id="Layer_1" x="0px" y="0px" viewBox="0 0 512 512" style="enable-background:new 0 0 512 512;" xml:space="preserve">
<rect x="478.609" y="77.913" width="33.391" height="356.174"/>
<rect x="411.826" y="122.435" width="33.391" height="267.13"/>
<rect x="345.043" y="178.087" width="33.391" height="155.826"/>
<polygon style="fill:#006DF3;" points="278.261,33.391 278.261,0 211.478,0 211.478,33.391 178.087,33.391 178.087,66.783   144.696,66.783 144.696,100.174 111.304,100.174 111.304,133.565 33.391,133.565 33.391,166.957 0,166.957 0,345.043   33.391,345.043 33.391,378.435 111.304,378.435 111.304,411.826 144.696,411.826 144.696,445.217 178.087,445.217 178.087,478.609   211.478,478.609 211.478,512 278.261,512 278.261,478.609 311.652,478.609 311.652,33.391 "/>
<polygon style="fill:#FFFFFF;" points="278.261,33.391 278.261,0 211.478,0 211.478,33.391 178.087,33.391 178.087,66.783   144.696,66.783 144.696,100.174 111.304,100.174 111.304,133.565 33.391,133.565 33.391,166.957 0,166.957 0,200.348   111.304,200.348 111.304,166.957 144.696,166.957 144.696,133.565 178.087,133.565 178.087,100.174 211.478,100.174 211.478,66.783   311.652,66.783 311.652,33.391 "/>
<rect y="166.957" width="33.391" height="178.087"/>
<rect x="278.261" y="33.391" width="33.391" height="445.217"/>
<rect x="33.391" y="133.565" width="77.913" height="33.391"/>
<rect x="33.391" y="345.043" width="77.913" height="33.391"/>
<rect x="111.304" y="100.174" width="33.391" height="33.391"/>
<rect x="144.696" y="66.783" width="33.391" height="33.391"/>
<rect x="178.087" y="33.391" width="33.391" height="33.391"/>
<rect x="211.478" width="66.783" height="33.391"/>
<rect x="111.304" y="378.435" width="33.391" height="33.391"/>
<rect x="144.696" y="411.826" width="33.391" height="33.391"/>
<rect x="178.087" y="445.217" width="33.391" height="33.391"/>
<rect x="211.478" y="478.609" width="66.783" height="33.391"/>
<g>
</g>
<g>
</g>
<g>
</g>
<g>
</g>
<g>
</g>
<g>
</g>
<g>
</g>
<g>
</g>
<g>
</g>
<g>
</g>
<g>
</g>
<g>
</g>
<g>
</g>
<g>
</g>
<g>
</g>
</svg>
