<?xml version="1.0" encoding="iso-8859-1"?>
<!-- Generator: Adobe Illustrator 19.0.0, SVG Export Plug-In . SVG Version: 6.00 Build 0)  -->
<svg xmlns="http://www.w3.org/2000/svg" xmlns:xlink="http://www.w3.org/1999/xlink" version="1.1" id="Layer_1" x="0px" y="0px" viewBox="0 0 512 512" style="enable-background:new 0 0 512 512;" xml:space="preserve">
<polygon style="fill:#006DF3;" points="378.435,33.391 378.435,0 311.652,0 311.652,33.391 278.261,33.391 278.261,66.783   244.87,66.783 244.87,100.174 211.478,100.174 211.478,133.565 133.565,133.565 133.565,166.957 100.174,166.957 100.174,345.043   133.565,345.043 133.565,378.435 211.478,378.435 211.478,411.826 244.87,411.826 244.87,445.217 278.261,445.217 278.261,478.609   311.652,478.609 311.652,512 378.435,512 378.435,478.609 411.826,478.609 411.826,33.391 "/>
<polygon style="fill:#FFFFFF;" points="378.435,33.391 378.435,0 311.652,0 311.652,33.391 278.261,33.391 278.261,66.783   244.87,66.783 244.87,100.174 211.478,100.174 211.478,133.565 133.565,133.565 133.565,166.957 100.174,166.957 100.174,200.348   211.478,200.348 211.478,166.957 244.87,166.957 244.87,133.565 278.261,133.565 278.261,100.174 311.652,100.174 311.652,66.783   411.826,66.783 411.826,33.391 "/>
<rect x="100.174" y="166.957" width="33.391" height="178.087"/>
<rect x="378.435" y="33.391" width="33.391" height="445.217"/>
<rect x="133.565" y="133.565" width="77.913" height="33.391"/>
<rect x="133.565" y="345.043" width="77.913" height="33.391"/>
<rect x="211.478" y="100.174" width="33.391" height="33.391"/>
<rect x="244.87" y="66.783" width="33.391" height="33.391"/>
<rect x="278.261" y="33.391" width="33.391" height="33.391"/>
<rect x="311.652" width="66.783" height="33.391"/>
<rect x="211.478" y="378.435" width="33.391" height="33.391"/>
<rect x="244.87" y="411.826" width="33.391" height="33.391"/>
<rect x="278.261" y="445.217" width="33.391" height="33.391"/>
<rect x="311.652" y="478.609" width="66.783" height="33.391"/>
<g>
</g>
<g>
</g>
<g>
</g>
<g>
</g>
<g>
</g>
<g>
</g>
<g>
</g>
<g>
</g>
<g>
</g>
<g>
</g>
<g>
</g>
<g>
</g>
<g>
</g>
<g>
</g>
<g>
</g>
</svg>
