<?xml version="1.0" encoding="iso-8859-1"?>
<!-- Generator: Adobe Illustrator 19.0.0, SVG Export Plug-In . SVG Version: 6.00 Build 0)  -->
<svg xmlns="http://www.w3.org/2000/svg" xmlns:xlink="http://www.w3.org/1999/xlink" version="1.1" id="Layer_1" x="0px" y="0px" viewBox="0 0 512 512" style="enable-background:new 0 0 512 512;" xml:space="preserve">
<polygon style="fill:#FFDE46;" points="478.609,66.783 478.609,33.391 178.087,33.391 178.087,66.783 144.696,66.783   144.696,100.174 0,100.174 0,478.609 512,478.609 512,144.696 512,100.174 512,66.783 "/>
<polygon style="fill:#FFFFFF;" points="512,100.174 66.783,100.174 0,100.174 0,166.957 0,478.609 66.783,478.609 66.783,166.957   512,166.957 "/>
<path d="M512,66.783h-33.391v33.391H178.087V66.783h-33.391v33.391H0v33.391l0,0v311.652l0,0v33.391l0,0l0,0h33.391l0,0H512l0,0l0,0  V66.783z M33.391,133.565h111.304h33.391h300.522v311.652H33.391V133.565z"/>
<rect x="178.087" y="33.391" width="300.522" height="33.391"/>
<g>
</g>
<g>
</g>
<g>
</g>
<g>
</g>
<g>
</g>
<g>
</g>
<g>
</g>
<g>
</g>
<g>
</g>
<g>
</g>
<g>
</g>
<g>
</g>
<g>
</g>
<g>
</g>
<g>
</g>
</svg>
