<?xml version="1.0" encoding="iso-8859-1"?>
<!-- Generator: Adobe Illustrator 19.0.0, SVG Export Plug-In . SVG Version: 6.00 Build 0)  -->
<svg xmlns="http://www.w3.org/2000/svg" xmlns:xlink="http://www.w3.org/1999/xlink" version="1.1" id="Layer_1" x="0px" y="0px" viewBox="0 0 512 512" style="enable-background:new 0 0 512 512;" xml:space="preserve">
<polygon style="fill:#E0E3FA;" points="478.609,61.217 478.609,27.826 33.391,27.826 33.391,61.217 0,61.217 0,384 33.391,384   33.391,417.391 200.348,417.391 200.348,450.783 200.348,484.174 233.739,484.174 267.13,484.174 267.13,450.783 300.522,450.783   300.522,417.391 478.609,417.391 478.609,384 512,384 512,61.217 "/>
<polygon style="fill:#FFFFFF;" points="478.609,61.217 478.609,27.826 66.783,27.826 33.391,27.826 33.391,61.217 0,61.217 0,384   33.391,384 33.391,417.391 66.783,417.391 66.783,384 66.783,339.478 66.783,94.609 411.826,94.609 478.609,94.609 512,94.609   512,61.217 "/>
<rect x="267.13" y="417.391" width="33.391" height="33.391"/>
<rect y="61.217" width="33.391" height="322.783"/>
<rect x="478.609" y="61.217" width="33.391" height="322.783"/>
<polygon points="233.739,417.391 233.739,384 200.348,384 33.391,384 33.391,417.391 200.348,417.391 200.348,484.174   233.739,484.174 267.13,484.174 267.13,450.783 233.739,450.783 "/>
<rect x="33.391" y="27.826" width="445.217" height="33.391"/>
<rect x="300.522" y="384" width="178.087" height="33.391"/>
<rect x="100.174" y="128" width="311.652" height="33.391"/>
<rect x="100.174" y="205.913" width="311.652" height="33.391"/>
<rect x="100.174" y="283.826" width="311.652" height="33.391"/>
<g>
</g>
<g>
</g>
<g>
</g>
<g>
</g>
<g>
</g>
<g>
</g>
<g>
</g>
<g>
</g>
<g>
</g>
<g>
</g>
<g>
</g>
<g>
</g>
<g>
</g>
<g>
</g>
<g>
</g>
</svg>
